{
	"asset":{
		"version":"2.0",
		"generator":"Created using the official Cinema 4D glTF Exporter 1.000x284978"
	},
	"scenes":[{
		"nodes":[0]
	}],
	"meshes":[{
		"name":"Landscape.1",
		"primitives":[{
			"attributes":{
				"POSITION":1,
				"NORMAL":2,
				"TEXCOORD_0":3
			},
			"indices":0,
			"material":0
		}]
	}],
	"nodes":[{
		"name":"Landscape.1",
		"mesh":0
	}],
	"textures":[{
		"sampler":0,
		"source":0
	}],
	"accessors":[{
		"bufferView":0,
		"type":"SCALAR",
		"componentType":5123,
		"count":138000,
		"byteOffset":0,
		"min":[0],
		"max":[23330]
	},
	{
		"bufferView":1,
		"type":"VEC3",
		"componentType":5126,
		"count":23331,
		"byteOffset":0,
		"min":[-500.0,
		0.0,
		-499.9999694824219],
		"max":[499.9999694824219,
		50.0,
		500.0]
	},
	{
		"bufferView":1,
		"type":"VEC3",
		"componentType":5126,
		"count":23331,
		"byteOffset":12,
		"min":[-0.4577668011188507,
		0.8527564406394959,
		-0.38692882657051089],
		"max":[0.39771541953086855,
		1.0,
		0.4341026842594147]
	},
	{
		"bufferView":1,
		"type":"VEC2",
		"componentType":5126,
		"count":23331,
		"byteOffset":24,
		"min":[0.0003255739575251937,
		0.0003266272833570838],
		"max":[0.9990243911743164,
		0.9990243911743164]
	}],
	"materials":[{
		"pbrMetallicRoughness":{
			"baseColorTexture":{
				"index":0
			},
			"baseColorFactor":[0.8,
			0.8,
			0.8,
			1.0],
			"metallicFactor":0.0,
			"roughnessFactor":0.5
		},
		"emissiveFactor":[0.0,
		0.0,
		0.0],
		"alphaMode":"OPAQUE",
		"doubleSided":false,
		"name":"Landscape.2"
	}],
	"bufferViews":[{
		"buffer":0,
		"byteOffset":0,
		"byteLength":276000,
		"target":34963
	},
	{
		"buffer":0,
		"byteOffset":276000,
		"byteLength":746592,
		"target":34962,
		"byteStride":32
	}],
	"buffers":[{
		"uri":"data:application/octet-stream;base64,",
		"byteLength":1022592
	}],
	"images":[{
		"uri":"data:image/jpeg;base64,"
	}],
	"samplers":[{
		"magFilter":9729,
		"minFilter":9729,
		"wrapS":10497,
		"wrapT":10497
	}]
}