{
	"asset":{
		"version":"2.0",
		"generator":"Created using the official Cinema 4D glTF Exporter 1.000x284978"
	},
	"scenes":[{
		"nodes":[0]
	}],
	"meshes":[{
		"name":"Landscape.1",
		"primitives":[{
			"attributes":{
				"POSITION":1,
				"NORMAL":2,
				"TEXCOORD_0":3
			},
			"indices":0,
			"material":0
		}]
	}],
	"nodes":[{
		"name":"Landscape.1",
		"mesh":0
	}],
	"textures":[{
		"sampler":0,
		"source":0
	}],
	"accessors":[{
		"bufferView":0,
		"type":"SCALAR",
		"componentType":5123,
		"count":15000,
		"byteOffset":0,
		"min":[0],
		"max":[2904]
	},
	{
		"bufferView":1,
		"type":"VEC3",
		"componentType":5126,
		"count":2905,
		"byteOffset":0,
		"min":[-400.0,
		0.0,
		-399.9999694824219],
		"max":[399.9999694824219,
		279.23358154296877,
		400.0]
	},
	{
		"bufferView":1,
		"type":"VEC3",
		"componentType":5126,
		"count":2905,
		"byteOffset":12,
		"min":[-0.9506933689117432,
		0.2671809494495392,
		-0.9318041205406189],
		"max":[0.9296832084655762,
		1.0,
		0.9142926931381226]
	},
	{
		"bufferView":1,
		"type":"VEC2",
		"componentType":5126,
		"count":2905,
		"byteOffset":24,
		"min":[0.00034254411002621055,
		0.00032583827851340175],
		"max":[0.9990243911743164,
		0.9990243911743164]
	}],
	"materials":[{
		"pbrMetallicRoughness":{
			"baseColorTexture":{
				"index":0
			},
			"baseColorFactor":[0.8,
			0.8,
			0.8,
			1.0],
			"metallicFactor":0.0,
			"roughnessFactor":0.5
		},
		"emissiveFactor":[0.0,
		0.0,
		0.0],
		"alphaMode":"OPAQUE",
		"doubleSided":false,
		"name":"Landscape"
	}],
	"bufferViews":[{
		"buffer":0,
		"byteOffset":0,
		"byteLength":30000,
		"target":34963
	},
	{
		"buffer":0,
		"byteOffset":30000,
		"byteLength":92960,
		"target":34962,
		"byteStride":32
	}],
	"buffers":[{
		"uri":"data:application/octet-stream;base64,",
		"byteLength":122960
	}],
	"images":[{
		"uri":"data:image/jpeg;base64,"
	}],
	"samplers":[{
		"magFilter":9729,
		"minFilter":9729,
		"wrapS":10497,
		"wrapT":10497
	}]
}