{
	"asset":{
		"version":"2.0",
		"generator":"Created using the official Cinema 4D glTF Exporter 1.000x284978"
	},
	"scenes":[{
		"nodes":[0]
	}],
	"nodes":[{
		"name":"Landscape.1",
		"mesh":0
	}],
	"meshes":[{
		"primitives":[{
			"attributes":{
				"POSITION":1,
				"NORMAL":2,
				"TEXCOORD_0":3
			},
			"indices":0,
			"material":0
		}],
		"name":"Landscape.1"
	}],
	"accessors":[{
		"bufferView":0,
		"type":"SCALAR",
		"componentType":5123,
		"count":60000,
		"byteOffset":0,
		"min":[0],
		"max":[10414]
	},
	{
		"bufferView":1,
		"type":"VEC3",
		"componentType":5126,
		"count":10415,
		"byteOffset":0,
		"min":[-500.0,
		0.0,
		-499.9999694824219],
		"max":[499.9999694824219,
		540.10009765625,
		500.0]
	},
	{
		"bufferView":1,
		"type":"VEC3",
		"componentType":5126,
		"count":10415,
		"byteOffset":12,
		"min":[-0.9085916876792908,
		0.27155065536499026,
		-0.9592339396476746],
		"max":[0.9375064969062805,
		1.0,
		0.9578849673271179]
	},
	{
		"bufferView":1,
		"type":"VEC2",
		"componentType":5126,
		"count":10415,
		"byteOffset":24,
		"min":[0.00039171724347397685,
		0.0003256708732806146],
		"max":[0.9990243911743164,
		0.9990243911743164]
	}],
	"bufferViews":[{
		"buffer":0,
		"byteLength":120000,
		"byteOffset":0,
		"target":34963
	},
	{
		"buffer":0,
		"byteLength":333280,
		"byteOffset":120000,
		"target":34962,
		"byteStride":32
	}],
	"buffers":[{
		"uri":"data:application/octet-stream;base64,",
		"byteLength":453280
	}],
	"images":[{
		"uri":"data:image/jpeg;base64,"
	}],
	"samplers":[{
		"magFilter":9729,
		"minFilter":9729,
		"wrapS":10497,
		"wrapT":10497
	}],
	"textures":[{
		"sampler":0,
		"source":0
	}],
	"materials":[{
		"name":"Landscape",
		"pbrMetallicRoughness":{
			"baseColorTexture":{
				"index":0
			},
			"baseColorFactor":[0.8,
			0.8,
			0.8,
			1.0],
			"metallicFactor":0.0,
			"roughnessFactor":0.5
		},
		"emissiveFactor":[0.0,
		0.0,
		0.0],
		"alphaMode":"OPAQUE",
		"doubleSided":false
	}]
}
