{
	"samplers":[{
		"magFilter":9729,
		"minFilter":9729,
		"wrapS":10497,
		"wrapT":10497
	}],
	"asset":{
		"version":"2.0",
		"generator":"Created using the official Cinema 4D glTF Exporter 1.000x284978"
	},
	"scenes":[{
		"nodes":[0]
	}],
	"nodes":[{
		"name":"Landscape.1",
		"mesh":0
	}],
	"meshes":[{
		"name":"Landscape.1",
		"primitives":[{
			"indices":0,
			"attributes":{
				"POSITION":1,
				"NORMAL":2,
				"TEXCOORD_0":3
			},
			"material":0
		}]
	}],
	"accessors":[{
		"bufferView":0,
		"type":"SCALAR",
		"componentType":5123,
		"count":60000,
		"byteOffset":0,
		"min":[0],
		"max":[10200]
	},
	{
		"bufferView":1,
		"type":"VEC3",
		"componentType":5126,
		"count":10201,
		"byteOffset":0,
		"min":[-500.0,
		0.0,
		-499.9999694824219],
		"max":[499.9999694824219,
		360.2601623535156,
		500.0]
	},
	{
		"bufferView":1,
		"type":"VEC3",
		"componentType":5126,
		"count":10201,
		"byteOffset":12,
		"min":[-0.913066029548645,
		0.34897780418395998,
		-0.8839336037635803],
		"max":[0.8972358703613281,
		1.0,
		0.9201186895370483]
	},
	{
		"bufferView":1,
		"type":"VEC2",
		"componentType":5126,
		"count":10201,
		"byteOffset":24,
		"min":[0.0003255740739405155,
		0.000327750516589731],
		"max":[0.9990243911743164,
		0.9990243911743164]
	}],
	"bufferViews":[{
		"buffer":0,
		"byteOffset":0,
		"byteLength":120000,
		"target":34963
	},
	{
		"buffer":0,
		"byteOffset":120000,
		"byteLength":326432,
		"target":34962,
		"byteStride":32
	}],
	"buffers":[{
		"uri":"data:application/octet-stream;base64,",
		"byteLength":446432
	}],
	"images":[{
		"uri":"data:image/jpeg;base64,"
	}],
	"textures":[{
		"sampler":0,
		"source":0
	}],
	"materials":[{
		"pbrMetallicRoughness":{
			"baseColorTexture":{
				"index":0
			},
			"baseColorFactor":[0.8,
			0.8,
			0.8,
			1.0],
			"metallicFactor":0.0,
			"roughnessFactor":0.5
		},
		"emissiveFactor":[0.0,
		0.0,
		0.0],
		"alphaMode":"OPAQUE",
		"doubleSided":false,
		"name":"Landscape.1"
	}]
}