{
	"samplers":[{
		"magFilter":9729,
		"minFilter":9729,
		"wrapS":10497,
		"wrapT":10497
	}],
	"asset":{
		"version":"2.0",
		"generator":"Created using the official Cinema 4D glTF Exporter 1.000x284978"
	},
	"scenes":[{
		"nodes":[0]
	}],
	"nodes":[{
		"name":"Landscape.1",
		"mesh":0
	}],
	"meshes":[{
		"name":"Landscape.1",
		"primitives":[{
			"indices":0,
			"attributes":{
				"POSITION":1,
				"NORMAL":2,
				"TEXCOORD_0":3
			},
			"material":0
		}]
	}],
	"accessors":[{
		"bufferView":0,
		"type":"SCALAR",
		"componentType":5123,
		"count":35880,
		"byteOffset":0,
		"min":[0],
		"max":[6137]
	},
	{
		"bufferView":1,
		"type":"VEC3",
		"componentType":5126,
		"count":6138,
		"byteOffset":0,
		"min":[-500.0,
		0.0,
		-500.0],
		"max":[500.0000305175781,
		201.92965698242188,
		500.0]
	},
	{
		"bufferView":1,
		"type":"VEC3",
		"componentType":5126,
		"count":6138,
		"byteOffset":12,
		"min":[-0.8208205699920654,
		0.5663290619850159,
		-0.7159314155578613],
		"max":[0.6870074272155762,
		1.0,
		0.6497491002082825]
	},
	{
		"bufferView":1,
		"type":"VEC2",
		"componentType":5126,
		"count":6138,
		"byteOffset":24,
		"min":[0.0003268070868216455,
		0.0003255740739405155],
		"max":[0.9990243911743164,
		0.9990243911743164]
	}],
	"bufferViews":[{
		"buffer":0,
		"byteOffset":0,
		"byteLength":71760,
		"target":34963
	},
	{
		"buffer":0,
		"byteOffset":71760,
		"byteLength":196416,
		"target":34962,
		"byteStride":32
	}],
	"buffers":[{
		"uri":"data:application/octet-stream;base64,",
		"byteLength":268176
	}],
	"images":[{
		"uri":"data:image/jpeg;base64,"
	}],
	"textures":[{
		"sampler":0,
		"source":0
	}],
	"materials":[{
		"pbrMetallicRoughness":{
			"baseColorTexture":{
				"index":0
			},
			"baseColorFactor":[0.8,
			0.8,
			0.8,
			1.0],
			"metallicFactor":0.0,
			"roughnessFactor":0.5
		},
		"emissiveFactor":[0.0,
		0.0,
		0.0],
		"alphaMode":"OPAQUE",
		"doubleSided":false,
		"name":"Landscape"
	}]
}